<svg width="600" height="600" xmlns="http://www.w3.org/2000/svg">
    <desc>河图</desc>
    <desc>hetu</desc>
    <!-- <g>
        <line y2="0" x2="600" y1="0" x1="0" stroke="#000" fill="none" />
        <line y2="600" x2="" y1="0" x1="0" stroke="#000" fill="none" />
        <line y2="600" x2="600" y1="0" x1="600" stroke="#000" fill="none" />
        <line y2="600" x2="600" y1="600" x1="0" stroke="#000" fill="none" />
    </g> -->
    <g>
        <title>top 1</title>
        <ellipse ry="10" rx="10" id="svg_19" cy="100" cx="180" stroke="#000" stroke-width="3" fill="none" />
        <ellipse ry="10" rx="10" id="svg_21" cy="100" cx="220" stroke="#000" stroke-width="3" fill="none" />
        <ellipse ry="10" rx="10" id="svg_20" cy="100" cx="260" stroke="#000" stroke-width="3" fill="none" />
        <ellipse ry="10" rx="10" id="svg_22" cy="100" cx="300" stroke="#000" stroke-width="3" fill="none" />
        <ellipse ry="10" rx="10" id="svg_23" cy="100" cx="340" stroke="#000" stroke-width="3" fill="none" />
        <ellipse ry="10" rx="10" id="svg_24" cy="100" cx="380" stroke="#000" stroke-width="3" fill="none" />
        <ellipse ry="10" rx="10" id="svg_25" cy="100" cx="420" stroke="#000" stroke-width="3" fill="none" />
        <line id="svg_26" y2="100" x2="210" y1="100" x1="190" stroke="#000" fill="none" />
        <line id="svg_27" y2="100" x2="250" y1="100" x1="230" stroke="#000" fill="none" />
        <line id="svg_28" y2="100" x2="290" y1="100" x1="270" stroke="#000" fill="none" />
        <line id="svg_29" y2="100" x2="330" y1="100" x1="310" stroke="#000" fill="none" />
        <line id="svg_31" y2="100" x2="370" y1="100" x1="350" stroke="#000" fill="none" />
        <line id="svg_32" y2="100" x2="410" y1="100" x1="390" stroke="#000" fill="none" />
    </g>
    <g>
        <title>top 2</title>
        <line y2="150" x2="220" y1="150" x1="360" stroke="#000" fill="none" />
        <ellipse stroke="#000" ry="10" rx="10" cy="150" cx="230" fill="black" />
        <ellipse stroke="#000" ry="10" rx="10" cy="150" cx="370" fill="black" />
    </g>
    <g>
        <title>top 3</title>
        <line y2="200" x2="200" y1="200" x1="400" stroke="#000" fill="none" />
        <circle cx="200" cy="200" r="10"/>
        <circle cx="250" cy="200" r="10"/>
        <circle cx="300" cy="200" r="10"/>
        <circle cx="350" cy="200" r="10"/>
        <circle cx="400" cy="200" r="10"/>
    </g>
    <g>
        <title>center</title>
        <line y2="290" x2="300" y1="260" x1="300" stroke="#000" fill="none" />
        <line y2="300" x2="340" y1="300" x1="310" stroke="#000" fill="none" />
        <line y2="340" x2="300" y1="310" x1="300" stroke="#000" fill="none" />
        <line y2="300" x2="260" y1="300" x1="290" stroke="#000" fill="none" />
        <circle cx="250" cy="300" r="10" stroke="#000" stroke-width="3" fill="none"/>
        <circle cx="300" cy="300" r="10" stroke="#000" stroke-width="3" fill="none"/>
        <circle cx="350" cy="300" r="10" stroke="#000" stroke-width="3" fill="none"/>
        <circle cx="300" cy="250" r="10" stroke="#000" stroke-width="3" fill="none"/>
        <circle cx="300" cy="350" r="10" stroke="#000" stroke-width="3" fill="none"/>
    </g>
    <g>
        <title>bottom 3</title>
        <line y2="400" x2="200" y1="400" x1="400" stroke="#000" fill="none" />
        <circle cx="200" cy="400" r="10"/>
        <circle cx="250" cy="400" r="10"/>
        <circle cx="300" cy="400" r="10"/>
        <circle cx="350" cy="400" r="10"/>
        <circle cx="400" cy="400" r="10"/>
    </g>
    <g>
        <title>bottom 2</title>
        <circle cx="300" cy="450" r="10" stroke="#000" stroke-width="3" fill="none"/>
    </g>
    <g>
        <title>bottom 1</title>
        <line y2="500" x2="180" y1="500" x1="420" stroke="#000" fill="none" />
        <circle cx="180" cy="500" r="10"/>
        <circle cx="228" cy="500" r="10"/>
        <circle cx="276" cy="500" r="10"/>
        <circle cx="324" cy="500" r="10"/>
        <circle cx="372" cy="500" r="10"/>
        <circle cx="420" cy="500" r="10"/>
    </g>
    <g>
        <title>left 1</title>
        <line y2="420" x2="100" y1="180" x1="100" stroke="#000" fill="none" />
        <circle cx="100" cy="180" r="10"/>
        <circle cx="100" cy="214" r="10"/>
        <circle cx="100" cy="248" r="10"/>
        <circle cx="100" cy="282" r="10"/>
        <circle cx="100" cy="316" r="10"/>
        <circle cx="100" cy="350" r="10"/>
        <circle cx="100" cy="384" r="10"/>
        <circle cx="100" cy="420" r="10"/>
    </g>
    <g>
        <title>left 2</title>
        <line y2="290" x2="150" y1="230" x1="150" stroke="#000" fill="none" />
        <line y2="370" x2="150" y1="310" x1="150" stroke="#000" fill="none" />
        <circle cx="150" cy="220" r="10" stroke="#000" stroke-width="3" fill="none"/>
        <circle cx="150" cy="300" r="10" stroke="#000" stroke-width="3" fill="none"/>
        <circle cx="150" cy="380" r="10" stroke="#000" stroke-width="3" fill="none"/>
    </g>
    <g>
        <title>left 3</title>
        <line y2="400" x2="200" y1="200" x1="200" stroke="#000" fill="none" />
    </g>
    <g>
        <title>right 3</title>
        <line y2="400" x2="400" y1="200" x1="400" stroke="#000" fill="none" />
    </g>
    <g>
        <title>right 2</title>
        <line y2="380" x2="450" y1="220" x1="450" stroke="#000" fill="none" />
        <circle cx="450" cy="220" r="10" />
        <circle cx="450" cy="273" r="10" />
        <circle cx="450" cy="326" r="10" />
        <circle cx="450" cy="380" r="10" />
    </g>
    <g>
        <title>right 1</title>
        <line y2="200" x2="500" y1="190" x1="500" stroke="#000" fill="none" />
        <line y2="230" x2="500" y1="220" x1="500" stroke="#000" fill="none" />
        <line y2="260" x2="500" y1="250" x1="500" stroke="#000" fill="none" />
        <line y2="290" x2="500" y1="280" x1="500" stroke="#000" fill="none" />
        <line y2="320" x2="500" y1="310" x1="500" stroke="#000" fill="none" />
        <line y2="350" x2="500" y1="340" x1="500" stroke="#000" fill="none" />
        <line y2="380" x2="500" y1="370" x1="500" stroke="#000" fill="none" />
        <line y2="410" x2="500" y1="400" x1="500" stroke="#000" fill="none" />
        <circle cx="500" cy="180" r="10" stroke="#000" stroke-width="3" fill="none"/>
        <circle cx="500" cy="210" r="10" stroke="#000" stroke-width="3" fill="none"/>
        <circle cx="500" cy="240" r="10" stroke="#000" stroke-width="3" fill="none"/>
        <circle cx="500" cy="270" r="10" stroke="#000" stroke-width="3" fill="none"/>
        <circle cx="500" cy="300" r="10" stroke="#000" stroke-width="3" fill="none"/>
        <circle cx="500" cy="330" r="10" stroke="#000" stroke-width="3" fill="none"/>
        <circle cx="500" cy="360" r="10" stroke="#000" stroke-width="3" fill="none"/>
        <circle cx="500" cy="390" r="10" stroke="#000" stroke-width="3" fill="none"/>
        <circle cx="500" cy="420" r="10" stroke="#000" stroke-width="3" fill="none"/>
    </g>
</svg>