<svg width="600" height="600" xmlns="http://www.w3.org/2000/svg">
    <desc>洛书</desc>
    <desc>luoshu</desc>
    <!-- <g>
        <line y2="0" x2="600" y1="0" x1="0" stroke="#000" fill="none" />
        <line y2="600" x2="" y1="0" x1="0" stroke="#000" fill="none" />
        <line y2="600" x2="600" y1="0" x1="600" stroke="#000" fill="none" />
        <line y2="600" x2="600" y1="600" x1="0" stroke="#000" fill="none" />
    </g> -->
    <g>
        <title>center</title>
        <line y2="290" x2="300" y1="210" x1="300" stroke="#000" fill="none" />
        <line y2="300" x2="390" y1="300" x1="310" stroke="#000" fill="none" />
        <line y2="390" x2="300" y1="310" x1="300" stroke="#000" fill="none" />
        <line y2="300" x2="210" y1="300" x1="290" stroke="#000" fill="none" />
        <circle cx="200" cy="300" r="10" stroke="#000" stroke-width="3" fill="none"/>
        <circle cx="300" cy="300" r="10" stroke="#000" stroke-width="3" fill="none"/>
        <circle cx="400" cy="300" r="10" stroke="#000" stroke-width="3" fill="none"/>
        <circle cx="300" cy="200" r="10" stroke="#000" stroke-width="3" fill="none"/>
        <circle cx="300" cy="400" r="10" stroke="#000" stroke-width="3" fill="none"/>
    </g>
    <g>
        <title>N</title>
        <circle cx="300" cy="500" r="10" stroke="#000" stroke-width="3" fill="none"/>
    </g>
    <g>
        <title>S</title>
        <circle cx="160" cy="100" r="10" stroke="#000" stroke-width="3" fill="none"/>
        <circle cx="195" cy="100" r="10" stroke="#000" stroke-width="3" fill="none"/>
        <circle cx="230" cy="100" r="10" stroke="#000" stroke-width="3" fill="none"/>
        <circle cx="265" cy="100" r="10" stroke="#000" stroke-width="3" fill="none"/>
        <circle cx="300" cy="100" r="10" stroke="#000" stroke-width="3" fill="none"/>
        <circle cx="335" cy="100" r="10" stroke="#000" stroke-width="3" fill="none"/>
        <circle cx="370" cy="100" r="10" stroke="#000" stroke-width="3" fill="none"/>
        <circle cx="405" cy="100" r="10" stroke="#000" stroke-width="3" fill="none"/>
        <circle cx="440" cy="100" r="10" stroke="#000" stroke-width="3" fill="none"/>
        <line y2="100" x2="170" y1="100" x1="185" stroke="#000" fill="none" />
        <line y2="100" x2="205" y1="100" x1="220" stroke="#000" fill="none" />
        <line y2="100" x2="240" y1="100" x1="255" stroke="#000" fill="none" />
        <line y2="100" x2="275" y1="100" x1="290" stroke="#000" fill="none" />
        <line y2="100" x2="310" y1="100" x1="325" stroke="#000" fill="none" />
        <line y2="100" x2="345" y1="100" x1="360" stroke="#000" fill="none" />
        <line y2="100" x2="380" y1="100" x1="395" stroke="#000" fill="none" />
        <line y2="100" x2="415" y1="100" x1="430" stroke="#000" fill="none" />
    </g>
    <g>
        <title>W</title>
        <line y2="210" x2="500" y1="190" x1="500" stroke="#000" fill="none" />
        <line y2="250" x2="500" y1="230" x1="500" stroke="#000" fill="none" />
        <line y2="290" x2="500" y1="270" x1="500" stroke="#000" fill="none" />
        <line y2="330" x2="500" y1="310" x1="500" stroke="#000" fill="none" />
        <line y2="370" x2="500" y1="350" x1="500" stroke="#000" fill="none" />
        <line y2="410" x2="500" y1="390" x1="500" stroke="#000" fill="none" />
        <circle cx="500" cy="180" r="10" stroke="#000" stroke-width="3" fill="none"/>
        <circle cx="500" cy="220" r="10" stroke="#000" stroke-width="3" fill="none"/>
        <circle cx="500" cy="260" r="10" stroke="#000" stroke-width="3" fill="none"/>
        <circle cx="500" cy="300" r="10" stroke="#000" stroke-width="3" fill="none"/>
        <circle cx="500" cy="340" r="10" stroke="#000" stroke-width="3" fill="none"/>
        <circle cx="500" cy="380" r="10" stroke="#000" stroke-width="3" fill="none"/>
        <circle cx="500" cy="420" r="10" stroke="#000" stroke-width="3" fill="none"/>
    </g>
    <g>
        <title>E</title>
        <line y2="190" x2="100" y1="290" x1="100" stroke="#000" fill="none" />
        <line y2="310" x2="100" y1="410" x1="100" stroke="#000" fill="none" />
        <circle cx="100" cy="180" r="10" stroke="#000" stroke-width="3" fill="none"/>
        <circle cx="100" cy="300" r="10" stroke="#000" stroke-width="3" fill="none"/>
        <circle cx="100" cy="420" r="10" stroke="#000" stroke-width="3" fill="none"/>
    </g>
    <g>
        <title>SW</title>
        <line y2="160" x2="440" y1="100" x1="500" stroke="#000" fill="none" />
        <circle cx="500" cy="100" r="10"/>
        <circle cx="440" cy="160" r="10"/>
    </g>
    <g>
        <title>NW</title>
        <line y2="420" x2="440" y1="480" x1="500" stroke="#000" fill="none" />
        <line y2="440" x2="420" y1="500" x1="480" stroke="#000" fill="none" />
        <circle cx="500" cy="480" r="10"/>
        <circle cx="470" cy="450" r="10"/>
        <circle cx="440" cy="420" r="10"/>
        <circle cx="480" cy="500" r="10"/>
        <circle cx="450" cy="470" r="10"/>
        <circle cx="420" cy="440" r="10"/>
    </g>
    <g>
        <title>NE</title>
        <line y2="420" x2="160" y1="480" x1="100" stroke="#000" fill="none" />
        <line y2="440" x2="180" y1="500" x1="120" stroke="#000" fill="none" />
        <circle cx="100" cy="480" r="10"/>
        <circle cx="120" cy="460" r="10"/>
        <circle cx="140" cy="440" r="10"/>
        <circle cx="160" cy="420" r="10"/>
        <circle cx="120" cy="500" r="10"/>
        <circle cx="140" cy="480" r="10"/>
        <circle cx="160" cy="460" r="10"/>
        <circle cx="180" cy="440" r="10"/>
    </g>
    <g>
        <title>SE</title>
        <line y2="180" x2="160" y1="120" x1="100" stroke="#000" fill="none" />
        <line y2="160" x2="180" y1="100" x1="120" stroke="#000" fill="none" />
        <circle cx="100" cy="120" r="10"/>
        <circle cx="160" cy="180" r="10"/>
        <circle cx="120" cy="100" r="10"/>
        <circle cx="180" cy="160" r="10"/>
    </g>
</svg>